<svg width="758" height="126" viewBox="0 0 758 126" fill="none" xmlns="http://www.w3.org/2000/svg">
<path d="M40.3284 125.975C32.7762 125.975 25.9793 124.621 19.9376 121.911C13.8959 119.202 9.06255 115.364 5.43753 110.398C1.81251 105.28 0 99.2599 0 92.3365C0 82.102 3.1719 74.2004 9.51569 68.6316C16.0105 62.9123 25.2996 58.7733 37.3831 56.2147L75.2192 48.313C75.2192 39.8846 73.4067 33.488 69.7817 29.1233C66.3077 24.608 60.7947 22.3504 53.2425 22.3504C46.2946 22.3504 40.9326 24.006 37.1565 27.3172C33.3804 30.6283 30.8882 34.9931 29.6799 40.4114L1.8125 38.831C4.07814 27.2419 9.66673 17.9104 18.5782 10.8366C27.6408 3.61218 39.0445 0 52.7894 0C69.253 0 81.563 4.36472 89.7193 13.0942C97.8756 21.8236 101.954 34.0148 101.954 49.6676V94.5942C101.954 97.6043 102.558 99.7114 103.766 100.916C104.975 101.969 106.636 102.496 108.751 102.496H114.641V123.266C113.735 123.416 112.225 123.567 110.11 123.717C108.147 124.018 106.107 124.169 103.993 124.169C98.2532 124.169 93.3444 123.191 89.2662 121.234C85.3391 119.277 82.3182 116.343 80.2036 112.429C78.089 108.366 76.9562 103.399 76.8052 97.5291H80.2036C79.4484 102.947 77.2583 107.839 73.6333 112.204C70.0082 116.418 65.3259 119.804 59.5863 122.363C53.9977 124.771 47.5784 125.975 40.3284 125.975ZM45.0862 105.205C51.581 105.205 57.0941 104.076 61.6254 101.819C66.1567 99.4104 69.5551 96.0993 71.8208 91.885C74.0864 87.5203 75.2192 82.3278 75.2192 76.3075V68.1801L45.0862 74.5014C38.5914 75.7054 34.0601 77.662 31.4924 80.3712C29.0757 82.9298 27.8674 86.3915 27.8674 90.7562C27.8674 95.2715 29.3778 98.8084 32.3987 101.367C35.4195 103.926 39.6487 105.205 45.0862 105.205Z" fill="white"/>
<path d="M176.405 123.266L134.037 2.70913H162.811L192.944 94.3684L223.077 2.70913H251.851L209.483 123.266H176.405Z" fill="white"/>
<path d="M312.028 125.975C304.476 125.975 297.679 124.621 291.637 121.911C285.596 119.202 280.762 115.364 277.137 110.398C273.512 105.28 271.7 99.2599 271.7 92.3365C271.7 82.102 274.872 74.2004 281.215 68.6316C287.71 62.9123 296.999 58.7733 309.083 56.2147L346.919 48.313C346.919 39.8846 345.106 33.488 341.481 29.1233C338.007 24.608 332.494 22.3504 324.942 22.3504C317.994 22.3504 312.632 24.006 308.856 27.3172C305.08 30.6283 302.588 34.9931 301.38 40.4114L273.512 38.831C275.778 27.2419 281.366 17.9104 290.278 10.8366C299.341 3.61218 310.744 0 324.489 0C340.953 0 353.263 4.36472 361.419 13.0942C369.575 21.8236 373.654 34.0148 373.654 49.6676V94.5942C373.654 97.6043 374.258 99.7114 375.466 100.916C376.674 101.969 378.336 102.496 380.45 102.496H386.341V123.266C385.435 123.416 383.924 123.567 381.81 123.717C379.846 124.018 377.807 124.169 375.693 124.169C369.953 124.169 365.044 123.191 360.966 121.234C357.039 119.277 354.018 116.343 351.903 112.429C349.789 108.366 348.656 103.399 348.505 97.5291H351.903C351.148 102.947 348.958 107.839 345.333 112.204C341.708 116.418 337.026 119.804 331.286 122.363C325.697 124.771 319.278 125.975 312.028 125.975ZM316.786 105.205C323.281 105.205 328.794 104.076 333.325 101.819C337.856 99.4104 341.255 96.0993 343.521 91.885C345.786 87.5203 346.919 82.3278 346.919 76.3075V68.1801L316.786 74.5014C310.291 75.7054 305.76 77.662 303.192 80.3712C300.775 82.9298 299.567 86.3915 299.567 90.7562C299.567 95.2715 301.077 98.8084 304.098 101.367C307.119 103.926 311.348 105.205 316.786 105.205Z" fill="white"/>
<path d="M452.409 125.975C440.779 125.975 431.565 122.137 424.768 114.461C418.123 106.635 414.8 95.5725 414.8 81.2742V2.70913H441.534V74.2756C441.534 84.3596 443.196 91.7345 446.519 96.4003C449.993 100.916 455.204 103.173 462.151 103.173C469.402 103.173 475.292 100.614 479.823 95.4972C484.506 90.2294 486.847 82.8546 486.847 73.3726V2.70913H513.808V123.266H488.886L488.433 90.0789L491.831 91.2077C489.868 102.345 485.488 110.924 478.691 116.945C471.894 122.965 463.133 125.975 452.409 125.975Z" fill="white"/>
<path d="M589.992 125.777V39.608C589.992 35.0928 588.709 31.5559 586.141 28.9972C583.724 26.4386 580.175 25.1593 575.492 25.1593H548.531V3.48615H579.571C591.805 3.48615 601.019 6.64681 607.211 12.9681C613.555 19.139 616.727 28.3952 616.727 40.7368V125.777H589.992ZM544 125.777V104.104H656.376V125.777H544Z" fill="url(#paint0_linear_2_47)"/>
<path d="M723.03 125.777C710.04 125.777 700.449 122.842 694.256 116.972C688.064 110.952 684.967 101.846 684.967 89.6551V3H711.702V87.6233C711.702 93.192 713.061 97.331 715.78 100.04C718.499 102.749 722.501 104.104 727.788 104.104H757.694V125.777H723.03ZM648.49 24.8933V3.22021H757.694V24.8933H648.49Z" fill="url(#paint1_linear_2_47)"/>
<defs>
<linearGradient id="paint0_linear_2_47" x1="650.847" y1="2.99943" x2="650.847" y2="125.777" gradientUnits="userSpaceOnUse">
<stop stop-color="#FFCC00"/>
<stop offset="1" stop-color="#FF7700"/>
</linearGradient>
<linearGradient id="paint1_linear_2_47" x1="650.847" y1="2.99943" x2="650.847" y2="125.777" gradientUnits="userSpaceOnUse">
<stop stop-color="#FFCC00"/>
<stop offset="1" stop-color="#FF7700"/>
</linearGradient>
</defs>
</svg>
